<svg width="14" height="14" viewBox="0 0 14 14" fill="none" xmlns="http://www.w3.org/2000/svg">
<path fill-rule="evenodd" clip-rule="evenodd" d="M8.50331 0.896545C7.83518 -0.298858 6.16485 -0.298859 5.49672 0.896542L0.235152 10.7069C-0.432983 11.9023 0.402182 13.3965 1.73845 13.3965H12.2615C13.5978 13.3965 14.433 11.9023 13.7648 10.7069L8.50331 0.896545ZM6.10024 8.76608L5.7352 4.01823C5.71515 3.75749 5.91459 3.53447 6.1678 3.53447H7.83201C8.08523 3.53447 8.28466 3.75749 8.26461 4.01823L7.89958 8.76608C7.88166 8.99916 7.69332 9.17886 7.46697 9.17886H6.53285C6.3065 9.17886 6.11816 8.99916 6.10024 8.76608ZM6.96946 12.4857C7.67166 12.4857 8.24091 11.8868 8.24091 11.148C8.24091 10.4092 7.67166 9.81033 6.96946 9.81033C6.26726 9.81033 5.69801 10.4092 5.69801 11.148C5.69801 11.8868 6.26726 12.4857 6.96946 12.4857Z" fill="#F5C10A"/>
</svg>
